<svg width="278" height="104" viewBox="0 0 278 104" fill="none" xmlns="http://www.w3.org/2000/svg">
<path d="M10.94 23.18L12.34 23.6C10.576 28.696 7.356 31.608 2.302 33.218C2.148 32.882 1.728 32.252 1.462 31.93C6.39 30.558 9.414 27.884 10.94 23.18ZM4.99 23.278C6.46 27.604 9.554 30.726 14.58 31.874C14.258 32.196 13.838 32.812 13.628 33.19C8.406 31.832 5.41 28.556 3.674 23.67L4.99 23.278ZM1.658 22.494H14.384V23.796H1.658V22.494ZM7.3 20.184H8.658V23.278H7.3V20.184ZM18.612 29.382L19.984 29.9C19.102 31.02 17.758 32.196 16.638 32.938C16.372 32.686 15.798 32.238 15.448 32.028C16.61 31.384 17.856 30.362 18.612 29.382ZM23.834 30.068L24.926 29.326C26.088 30.11 27.6 31.286 28.356 32.07L27.18 32.91C26.494 32.126 25.024 30.908 23.834 30.068ZM16.75 24.398L17.66 23.572C18.878 24.258 20.446 25.336 21.216 26.12L20.236 27.072C19.522 26.288 17.996 25.154 16.75 24.398ZM24.044 26.176L25.122 25.49C26.312 26.456 27.81 27.856 28.51 28.822L27.334 29.606C26.69 28.654 25.248 27.198 24.044 26.176ZM21.258 28.108H22.672V33.19H21.258V28.108ZM15.714 27.548C18.486 27.52 22.91 27.436 26.956 27.352L26.886 28.542C22.91 28.696 18.654 28.808 15.84 28.878L15.714 27.548ZM24.184 22.55L25.472 23.236C23.708 25.07 21.286 27.128 19.424 28.416L18.388 27.744C20.278 26.442 22.714 24.272 24.184 22.55ZM20.6 21.598L21.888 22.242C21.034 23.25 19.942 24.384 19.102 25.098L18.038 24.51C18.864 23.768 19.956 22.536 20.6 21.598ZM26.438 20.352L27.39 21.486C24.436 22.06 20.11 22.354 16.456 22.424C16.428 22.088 16.274 21.542 16.148 21.234C19.76 21.136 23.988 20.856 26.438 20.352Z" fill="#666666"/>
<path d="M7.888 78.524V80.064H12.662V78.524H7.888ZM7.888 75.948V77.46H12.662V75.948H7.888ZM6.684 74.814H13.936V81.198H6.684V74.814ZM6.544 82.654H14.104V83.858H6.544V82.654ZM5.508 85.524H14.58V86.728H5.508V85.524ZM1.574 75.066H6.068V76.312H1.574V75.066ZM1.714 79.112H5.844V80.344H1.714V79.112ZM1.42 84.46C2.582 84.138 4.318 83.592 5.956 83.046L6.194 84.32C4.654 84.838 3.016 85.384 1.728 85.804L1.42 84.46ZM3.226 75.556H4.5V84.208L3.226 84.432V75.556ZM9.722 75.318H10.856V80.652H10.968V86.084H9.61V80.652H9.722V75.318ZM18.612 83.382L19.984 83.9C19.102 85.02 17.758 86.196 16.638 86.938C16.372 86.686 15.798 86.238 15.448 86.028C16.61 85.384 17.856 84.362 18.612 83.382ZM23.834 84.068L24.926 83.326C26.088 84.11 27.6 85.286 28.356 86.07L27.18 86.91C26.494 86.126 25.024 84.908 23.834 84.068ZM16.75 78.398L17.66 77.572C18.878 78.258 20.446 79.336 21.216 80.12L20.236 81.072C19.522 80.288 17.996 79.154 16.75 78.398ZM24.044 80.176L25.122 79.49C26.312 80.456 27.81 81.856 28.51 82.822L27.334 83.606C26.69 82.654 25.248 81.198 24.044 80.176ZM21.258 82.108H22.672V87.19H21.258V82.108ZM15.714 81.548C18.486 81.52 22.91 81.436 26.956 81.352L26.886 82.542C22.91 82.696 18.654 82.808 15.84 82.878L15.714 81.548ZM24.184 76.55L25.472 77.236C23.708 79.07 21.286 81.128 19.424 82.416L18.388 81.744C20.278 80.442 22.714 78.272 24.184 76.55ZM20.6 75.598L21.888 76.242C21.034 77.25 19.942 78.384 19.102 79.098L18.038 78.51C18.864 77.768 19.956 76.536 20.6 75.598ZM26.438 74.352L27.39 75.486C24.436 76.06 20.11 76.354 16.456 76.424C16.428 76.088 16.274 75.542 16.148 75.234C19.76 75.136 23.988 74.856 26.438 74.352Z" fill="#666666"/>
<path d="M39 2L39 102" stroke="#CBD4D8" stroke-width="4" stroke-linecap="round"/>
<path d="M41 12H201.5C203.709 12 205.5 13.7909 205.5 16V36C205.5 38.2091 203.709 40 201.5 40H41V12Z" fill="url(#paint0_linear_2701_9304)"/>
<path d="M226.508 43.624C224.364 43.624 222.396 43.088 220.604 42.016C218.812 40.944 217.38 39.512 216.308 37.72C215.236 35.928 214.7 33.944 214.7 31.768C214.7 30.648 214.828 29.608 215.084 28.648C215.356 27.688 215.772 26.72 216.332 25.744L225.74 9.4H232.532L226.22 20.32C227.516 20.224 228.764 20.336 229.964 20.656C231.164 20.976 232.276 21.48 233.3 22.168C234.324 22.856 235.22 23.688 235.988 24.664C236.756 25.64 237.348 26.728 237.764 27.928C238.196 29.128 238.412 30.408 238.412 31.768C238.412 33.4 238.1 34.928 237.476 36.352C236.868 37.776 236.02 39.04 234.932 40.144C233.844 41.232 232.58 42.088 231.14 42.712C229.7 43.32 228.156 43.624 226.508 43.624ZM226.508 37.768C227.676 37.768 228.716 37.488 229.628 36.928C230.54 36.352 231.252 35.608 231.764 34.696C232.292 33.784 232.556 32.816 232.556 31.792C232.556 30.688 232.292 29.68 231.764 28.768C231.236 27.856 230.516 27.128 229.604 26.584C228.708 26.04 227.692 25.768 226.556 25.768C225.388 25.768 224.348 26.056 223.436 26.632C222.54 27.192 221.836 27.928 221.324 28.84C220.812 29.752 220.556 30.736 220.556 31.792C220.556 32.928 220.836 33.944 221.396 34.84C221.956 35.736 222.684 36.448 223.58 36.976C224.492 37.504 225.468 37.768 226.508 37.768ZM240.564 43L256.572 15.256H238.884V9.4H263.364V15.256L247.308 43H240.564Z" fill="#333333"/>
<path d="M267.86 46L274.324 34.8H275.876L269.412 46H267.86ZM269.188 39.304C268.809 39.304 268.465 39.2133 268.156 39.032C267.852 38.8507 267.607 38.6053 267.42 38.296C267.233 37.9867 267.14 37.6427 267.14 37.264C267.14 36.8747 267.233 36.528 267.42 36.224C267.607 35.9147 267.855 35.6693 268.164 35.488C268.473 35.3067 268.815 35.216 269.188 35.216C269.561 35.216 269.903 35.3093 270.212 35.496C270.521 35.6773 270.767 35.9227 270.948 36.232C271.135 36.536 271.228 36.88 271.228 37.264C271.228 37.648 271.135 37.9947 270.948 38.304C270.761 38.608 270.513 38.8507 270.204 39.032C269.895 39.2133 269.556 39.304 269.188 39.304ZM269.188 38.32C269.481 38.32 269.729 38.2187 269.932 38.016C270.14 37.808 270.244 37.5573 270.244 37.264C270.244 36.9653 270.14 36.7147 269.932 36.512C269.729 36.304 269.481 36.2 269.188 36.2C268.895 36.2 268.644 36.304 268.436 36.512C268.228 36.7147 268.124 36.9653 268.124 37.264C268.124 37.5573 268.228 37.808 268.436 38.016C268.644 38.2187 268.895 38.32 269.188 38.32ZM274.556 45.592C274.183 45.592 273.839 45.4987 273.524 45.312C273.215 45.12 272.967 44.8693 272.78 44.56C272.599 44.2453 272.508 43.9067 272.508 43.544C272.508 43.16 272.601 42.8133 272.788 42.504C272.98 42.1947 273.231 41.9493 273.54 41.768C273.849 41.5867 274.188 41.496 274.556 41.496C274.94 41.496 275.287 41.592 275.596 41.784C275.905 41.9707 276.151 42.2187 276.332 42.528C276.513 42.8373 276.604 43.176 276.604 43.544C276.604 43.9227 276.511 44.2667 276.324 44.576C276.143 44.8853 275.897 45.1333 275.588 45.32C275.279 45.5013 274.935 45.592 274.556 45.592ZM274.556 44.608C274.849 44.608 275.1 44.504 275.308 44.296C275.516 44.088 275.62 43.8373 275.62 43.544C275.62 43.2507 275.516 43 275.308 42.792C275.1 42.584 274.849 42.48 274.556 42.48C274.263 42.48 274.012 42.584 273.804 42.792C273.596 43 273.492 43.2507 273.492 43.544C273.492 43.8373 273.596 44.088 273.804 44.296C274.012 44.504 274.263 44.608 274.556 44.608Z" fill="#333333"/>
<path d="M41 66H120.125C122.334 66 124.125 67.7909 124.125 70V90C124.125 92.2091 122.334 94 120.125 94H41V66Z" fill="#C0DCEE"/>
<path d="M141.323 93.468C139.799 93.468 138.425 93.108 137.201 92.388C135.977 91.668 135.005 90.702 134.285 89.49C133.565 88.266 133.205 86.91 133.205 85.422H137.597C137.597 86.094 137.753 86.706 138.065 87.258C138.389 87.81 138.833 88.254 139.397 88.59C139.961 88.914 140.603 89.076 141.323 89.076C141.983 89.076 142.595 88.914 143.159 88.59C143.735 88.254 144.197 87.81 144.545 87.258C144.893 86.706 145.067 86.094 145.067 85.422C145.067 84.546 144.833 83.82 144.365 83.244C143.897 82.656 143.243 82.218 142.403 81.93C141.575 81.642 140.609 81.498 139.505 81.498V78.114C140.993 78.114 142.169 77.832 143.033 77.268C143.909 76.704 144.347 75.876 144.347 74.784C144.347 74.22 144.203 73.704 143.915 73.236C143.627 72.768 143.243 72.396 142.763 72.12C142.295 71.832 141.779 71.688 141.215 71.688C140.639 71.688 140.081 71.832 139.541 72.12C139.001 72.396 138.557 72.768 138.209 73.236C137.873 73.704 137.705 74.22 137.705 74.784H133.313C133.313 73.752 133.523 72.786 133.943 71.886C134.363 70.974 134.939 70.176 135.671 69.492C136.415 68.808 137.255 68.274 138.191 67.89C139.139 67.494 140.129 67.296 141.161 67.296C142.517 67.296 143.771 67.632 144.923 68.304C146.075 68.976 146.999 69.876 147.695 71.004C148.391 72.132 148.739 73.392 148.739 74.784C148.739 75.756 148.511 76.71 148.055 77.646C147.599 78.582 146.951 79.242 146.111 79.626C146.843 79.89 147.455 80.334 147.947 80.958C148.439 81.57 148.811 82.272 149.063 83.064C149.327 83.844 149.459 84.63 149.459 85.422C149.459 86.898 149.087 88.248 148.343 89.472C147.599 90.684 146.609 91.656 145.373 92.388C144.149 93.108 142.799 93.468 141.323 93.468ZM158.305 93.468C156.781 93.468 155.407 93.108 154.183 92.388C152.959 91.668 151.987 90.702 151.267 89.49C150.547 88.266 150.187 86.91 150.187 85.422H154.579C154.579 86.094 154.735 86.706 155.047 87.258C155.371 87.81 155.815 88.254 156.379 88.59C156.943 88.914 157.585 89.076 158.305 89.076C158.965 89.076 159.577 88.914 160.141 88.59C160.717 88.254 161.179 87.81 161.527 87.258C161.875 86.706 162.049 86.094 162.049 85.422C162.049 84.546 161.815 83.82 161.347 83.244C160.879 82.656 160.225 82.218 159.385 81.93C158.557 81.642 157.591 81.498 156.487 81.498V78.114C157.975 78.114 159.151 77.832 160.015 77.268C160.891 76.704 161.329 75.876 161.329 74.784C161.329 74.22 161.185 73.704 160.897 73.236C160.609 72.768 160.225 72.396 159.745 72.12C159.277 71.832 158.761 71.688 158.197 71.688C157.621 71.688 157.063 71.832 156.523 72.12C155.983 72.396 155.539 72.768 155.191 73.236C154.855 73.704 154.687 74.22 154.687 74.784H150.295C150.295 73.752 150.505 72.786 150.925 71.886C151.345 70.974 151.921 70.176 152.653 69.492C153.397 68.808 154.237 68.274 155.173 67.89C156.121 67.494 157.111 67.296 158.143 67.296C159.499 67.296 160.753 67.632 161.905 68.304C163.057 68.976 163.981 69.876 164.677 71.004C165.373 72.132 165.721 73.392 165.721 74.784C165.721 75.756 165.493 76.71 165.037 77.646C164.581 78.582 163.933 79.242 163.093 79.626C163.825 79.89 164.437 80.334 164.929 80.958C165.421 81.57 165.793 82.272 166.045 83.064C166.309 83.844 166.441 84.63 166.441 85.422C166.441 86.898 166.069 88.248 165.325 89.472C164.581 90.684 163.591 91.656 162.355 92.388C161.131 93.108 159.781 93.468 158.305 93.468Z" fill="#333333"/>
<path d="M171.485 94L177.949 82.8H179.501L173.037 94H171.485ZM172.813 87.304C172.434 87.304 172.09 87.2133 171.781 87.032C171.477 86.8507 171.232 86.6053 171.045 86.296C170.858 85.9867 170.765 85.6427 170.765 85.264C170.765 84.8747 170.858 84.528 171.045 84.224C171.232 83.9147 171.48 83.6693 171.789 83.488C172.098 83.3067 172.44 83.216 172.813 83.216C173.186 83.216 173.528 83.3093 173.837 83.496C174.146 83.6773 174.392 83.9227 174.573 84.232C174.76 84.536 174.853 84.88 174.853 85.264C174.853 85.648 174.76 85.9947 174.573 86.304C174.386 86.608 174.138 86.8507 173.829 87.032C173.52 87.2133 173.181 87.304 172.813 87.304ZM172.813 86.32C173.106 86.32 173.354 86.2187 173.557 86.016C173.765 85.808 173.869 85.5573 173.869 85.264C173.869 84.9653 173.765 84.7147 173.557 84.512C173.354 84.304 173.106 84.2 172.813 84.2C172.52 84.2 172.269 84.304 172.061 84.512C171.853 84.7147 171.749 84.9653 171.749 85.264C171.749 85.5573 171.853 85.808 172.061 86.016C172.269 86.2187 172.52 86.32 172.813 86.32ZM178.181 93.592C177.808 93.592 177.464 93.4987 177.149 93.312C176.84 93.12 176.592 92.8693 176.405 92.56C176.224 92.2453 176.133 91.9067 176.133 91.544C176.133 91.16 176.226 90.8133 176.413 90.504C176.605 90.1947 176.856 89.9493 177.165 89.768C177.474 89.5867 177.813 89.496 178.181 89.496C178.565 89.496 178.912 89.592 179.221 89.784C179.53 89.9707 179.776 90.2187 179.957 90.528C180.138 90.8373 180.229 91.176 180.229 91.544C180.229 91.9227 180.136 92.2667 179.949 92.576C179.768 92.8853 179.522 93.1333 179.213 93.32C178.904 93.5013 178.56 93.592 178.181 93.592ZM178.181 92.608C178.474 92.608 178.725 92.504 178.933 92.296C179.141 92.088 179.245 91.8373 179.245 91.544C179.245 91.2507 179.141 91 178.933 90.792C178.725 90.584 178.474 90.48 178.181 90.48C177.888 90.48 177.637 90.584 177.429 90.792C177.221 91 177.117 91.2507 177.117 91.544C177.117 91.8373 177.221 92.088 177.429 92.296C177.637 92.504 177.888 92.608 178.181 92.608Z" fill="#333333"/>
<defs>
<linearGradient id="paint0_linear_2701_9304" x1="41" y1="26" x2="205.5" y2="26" gradientUnits="userSpaceOnUse">
<stop stop-color="#0368FF"/>
<stop offset="1" stop-color="#5AEEF8"/>
</linearGradient>
</defs>
</svg>
