<svg width="155" height="155" viewBox="0 0 155 155" fill="none" xmlns="http://www.w3.org/2000/svg">
<path d="M78 11C92.3559 11 106.384 15.2915 118.283 23.3234C130.181 31.3552 139.408 42.7607 144.776 56.0749C150.145 69.3892 151.41 84.0044 148.411 98.0434C145.411 112.082 138.284 124.904 127.943 134.862C117.602 144.82 104.521 151.46 90.3789 153.928C76.2368 156.396 61.6798 154.58 48.5773 148.714C35.4748 142.847 24.4252 133.198 16.8475 121.005C9.26982 108.812 5.51009 94.632 6.05116 80.2863L31.9527 81.2633C31.6065 90.4445 34.0127 99.5196 38.8624 107.323C43.7121 115.127 50.7839 121.302 59.1695 125.057C67.555 128.811 76.8716 129.973 85.9225 128.394C94.9734 126.814 103.346 122.565 109.964 116.192C116.582 109.819 121.143 101.613 123.063 92.6278C124.983 83.6428 124.173 74.2891 120.737 65.768C117.301 57.2468 111.396 49.9473 103.781 44.8069C96.1657 39.6666 87.1878 36.92 78 36.92V11Z" fill="url(#paint0_angular_2701_9325)"/>
<path d="M50.0138 95L66.0218 67.256H48.3338V61.4H72.8138V67.256L56.7578 95H50.0138ZM84.8525 95.624C82.7085 95.624 80.7405 95.088 78.9485 94.016C77.1565 92.944 75.7245 91.512 74.6525 89.72C73.5805 87.928 73.0445 85.944 73.0445 83.768C73.0445 82.648 73.1725 81.608 73.4285 80.648C73.7005 79.688 74.1165 78.72 74.6765 77.744L84.0845 61.4H90.8765L84.5645 72.32C85.8605 72.224 87.1085 72.336 88.3085 72.656C89.5085 72.976 90.6205 73.48 91.6445 74.168C92.6685 74.856 93.5645 75.688 94.3325 76.664C95.1005 77.64 95.6925 78.728 96.1085 79.928C96.5405 81.128 96.7565 82.408 96.7565 83.768C96.7565 85.4 96.4445 86.928 95.8205 88.352C95.2125 89.776 94.3645 91.04 93.2765 92.144C92.1885 93.232 90.9245 94.088 89.4845 94.712C88.0445 95.32 86.5005 95.624 84.8525 95.624ZM84.8525 89.768C86.0205 89.768 87.0605 89.488 87.9725 88.928C88.8845 88.352 89.5965 87.608 90.1085 86.696C90.6365 85.784 90.9005 84.816 90.9005 83.792C90.9005 82.688 90.6365 81.68 90.1085 80.768C89.5805 79.856 88.8605 79.128 87.9485 78.584C87.0525 78.04 86.0365 77.768 84.9005 77.768C83.7325 77.768 82.6925 78.056 81.7805 78.632C80.8845 79.192 80.1805 79.928 79.6685 80.84C79.1565 81.752 78.9005 82.736 78.9005 83.792C78.9005 84.928 79.1805 85.944 79.7405 86.84C80.3005 87.736 81.0285 88.448 81.9245 88.976C82.8365 89.504 83.8125 89.768 84.8525 89.768ZM100.534 95L106.19 85.2H108.164L102.508 95H100.534ZM101.738 89.449C101.356 89.449 101.003 89.358 100.681 89.176C100.364 88.9893 100.11 88.7373 99.9185 88.42C99.7272 88.1027 99.6315 87.748 99.6315 87.356C99.6315 86.9547 99.7272 86.5953 99.9185 86.278C100.114 85.9607 100.371 85.711 100.688 85.529C101.01 85.347 101.36 85.256 101.738 85.256C102.121 85.256 102.471 85.3493 102.788 85.536C103.106 85.7227 103.358 85.9747 103.544 86.292C103.736 86.6093 103.831 86.964 103.831 87.356C103.831 87.7527 103.733 88.1097 103.537 88.427C103.346 88.7443 103.092 88.994 102.774 89.176C102.457 89.358 102.112 89.449 101.738 89.449ZM101.738 88.28C101.99 88.28 102.207 88.1913 102.389 88.014C102.571 87.832 102.662 87.6127 102.662 87.356C102.662 87.0947 102.571 86.8753 102.389 86.698C102.207 86.5207 101.99 86.432 101.738 86.432C101.482 86.432 101.26 86.5207 101.073 86.698C100.891 86.8753 100.8 87.0947 100.8 87.356C100.8 87.6127 100.891 87.832 101.073 88.014C101.26 88.1913 101.482 88.28 101.738 88.28ZM106.96 94.951C106.573 94.951 106.221 94.8553 105.903 94.664C105.586 94.468 105.334 94.2113 105.147 93.894C104.961 93.572 104.867 93.2267 104.867 92.858C104.867 92.4567 104.963 92.0973 105.154 91.78C105.35 91.4627 105.607 91.213 105.924 91.031C106.246 90.8443 106.592 90.751 106.96 90.751C107.362 90.751 107.721 90.849 108.038 91.045C108.356 91.241 108.605 91.5 108.787 91.822C108.974 92.1393 109.067 92.4847 109.067 92.858C109.067 93.2407 108.972 93.5907 108.78 93.908C108.594 94.2253 108.339 94.4797 108.017 94.671C107.7 94.8577 107.348 94.951 106.96 94.951ZM106.96 93.782C107.222 93.782 107.443 93.691 107.625 93.509C107.807 93.327 107.898 93.11 107.898 92.858C107.898 92.5967 107.807 92.375 107.625 92.193C107.443 92.011 107.222 91.92 106.96 91.92C106.708 91.92 106.491 92.011 106.309 92.193C106.127 92.375 106.036 92.5967 106.036 92.858C106.036 93.11 106.127 93.327 106.309 93.509C106.491 93.691 106.708 93.782 106.96 93.782Z" fill="#454545"/>
<defs>
<linearGradient id="paint0_angular_2701_9325" cx="0" cy="0" r="1" x1="0.8" x2="0.6" y1="0.25" y2="0.9">
  <stop stop-color="#5BEEF7"/>
  <stop offset="1" stop-color="#1989FD"/>
</linearGradient>
</defs>
</svg>
