<svg xmlns="http://www.w3.org/2000/svg" xmlns:xlink="http://www.w3.org/1999/xlink" width="172" height="40" viewBox="0 0 172 40"><defs><clipPath id="a"><path d="M0,0H172V40H0Z" fill="#fff"/></clipPath></defs><g clip-path="url(#a)"><path d="M7.762,29.919A10.382,10.382,0,0,1,12.6,24.274,26.322,26.322,0,0,1,21.12,21c.394-.087,1.12-.273,2.167-.581a25.816,25.816,0,0,0-2.621-.139,24.65,24.65,0,0,1-5.61-.494c-3.528-.81-4.8-3.838-2.939-7.036a11.03,11.03,0,0,1,4.156-3.938A23.265,23.265,0,0,1,26.446,5.974a15.016,15.016,0,0,0-6.458-1.482,15.561,15.561,0,0,0-15.495,15.7A15.909,15.909,0,0,0,7.762,29.919Z" transform="translate(-0.316 -0.225)" fill="#FFFFFF"/><path d="M26.152,33.1a17.867,17.867,0,0,1-7.34,3.1c.5.052,1.013.078,1.531.082A15.57,15.57,0,0,0,35.795,20.627a15.929,15.929,0,0,0-3.244-9.73c-.025.013-.051.026-.081.043-1.887,1.1-5.394,2.929-6.1,3.34a6.038,6.038,0,0,1,2-2.777,8.47,8.47,0,0,0-3.927-.009,18.009,18.009,0,0,0-9.062,4.129c-1.17,1.057-.92,1.876.6,2.275a18.727,18.727,0,0,0,4.393.438c2.311.056,4.626.074,6.937.156,1.289.048,1.586.628,1.005,1.811A3.152,3.152,0,0,1,25.63,22.19a24.225,24.225,0,0,0-6.4,1.672c-2.583,1.174-5.114,2.465-6.912,4.8-1.2,1.555-.729,2.881,1.132,3.4a11.067,11.067,0,0,0,4.694.1,21.344,21.344,0,0,0,10.6-5.108c.492-.4,1.052-.945,1.488-1.321C29.633,29.456,28.675,31.007,26.152,33.1Z" transform="translate(-0.819 -0.546)" fill="#FFFFFF"/><path d="M19.579,40A19.814,19.814,0,0,1,0,20,19.815,19.815,0,0,1,19.579,0,19.815,19.815,0,0,1,39.157,20,19.82,19.82,0,0,1,19.579,40Zm0-39.1A18.924,18.924,0,0,0,.882,20a18.924,18.924,0,0,0,18.7,19.1A18.924,18.924,0,0,0,38.275,20,18.924,18.924,0,0,0,19.579.9Z" transform="translate(0 0)" fill="#FFFFFF"/><path d="M55.925,19.45h4.648c2.854,0,2.854-2.266,2.96-3.093h.7c-.072.793-.14,2.734-.14,4.029,0,1.152.178,2.842.14,3.994h-.7c0-3.453-1.128-3.453-3.838-3.453h-3.77v6.117c0,3.994.14,5,3.63,5h2.184c3.452-.182,5-.65,6.378-4.5l.844.143A48.331,48.331,0,0,0,67.515,33.2c-3.524,0-7.044-.074-10.567-.074-2.608,0-5.212,0-7.819.074v-.936c3.066,0,3.346-.576,3.346-4.068V12.219c0-2.95-.564-3.093-3.346-3.2V8.082c2.362.074,4.754.074,7.116.074,3.38,0,6.73,0,10.143-.074v5.363l-.7.182c-.53-3.384-2.112-4.389-5.636-4.389H55.925Z" transform="translate(-3.452 -0.405)" fill="#FFFFFF"/><path d="M91.867,25.986a37.348,37.348,0,0,0,2.006,5.255,3.3,3.3,0,0,0,2.714.97v.936c-1.34,0-2.714-.074-4.05-.074-1.726,0-3.418.035-5.144.074v-.936h.636c.882,0,1.938-.182,1.938-1.187a8.947,8.947,0,0,0-.53-2.088l-1.76-5.216H79.4l-.776,2.517a17.707,17.707,0,0,0-.95,4.28c0,1.69,1.162,1.62,2.4,1.69h.81v.936c-1.374,0-2.782-.074-4.156-.074-1.408,0-2.854.035-4.262.074v-.936c2.15-.251,2.536-.542,3.418-2.556.564-1.3.988-2.7,1.446-4.029l4.508-12.85a11.213,11.213,0,0,0,.738-3.241A3.792,3.792,0,0,0,82.5,8.6a4.371,4.371,0,0,0,2.044-1.581h.6ZM79.891,22.243h7.256l-3.77-10.58H83.3Z" transform="translate(-5.092 -0.352)" fill="#FFFFFF"/><path d="M120.708,14.491h-.776c-.916-4.176-4.333-5.831-8.277-5.831-6.234,0-9.83,5.58-9.83,11.446,0,6.225,3.732,12.451,10.075,12.451a7.505,7.505,0,0,0,4.754-1.4V25.794c0-2.625-1.34-2.625-3.206-2.625v-.936c1.654.035,3.278.074,4.86.074,1.62,0,3.24-.035,4.3-.074v.936c-1.161,0-2.5,0-2.5,2.625v4.714l.531.542v.611a27.78,27.78,0,0,1-9.16,2.053A12.974,12.974,0,0,1,97.944,20.652a12.856,12.856,0,0,1,13.1-13.135A25.363,25.363,0,0,1,120.1,9.462Z" transform="translate(-6.883 -0.377)" fill="#FFFFFF"/><path d="M144.271,33.2c-2.994-.074-5.954-.074-8.948-.074-3.134,0-6.234,0-9.334.074v-.936c1.76.108,3.206-.36,3.206-2.413V11.6c0-2.517-1.34-2.556-3.206-2.591V8.077c1.654.035,3.278.074,4.86.074,1.62,0,3.24-.035,5-.074v.936c-1.866.035-3.206.074-3.206,2.591V28.266c0,2.664.563,3.778,5.563,3.778,4.088,0,5.5-1.009,6.585-4.5l.776.143Z" transform="translate(-8.853 -0.405)" fill="#FFFFFF"/><path d="M157.318,29.674c0,2.517,1.34,2.556,3.206,2.591V33.2c-1.76-.035-3.38-.074-5-.074-1.586,0-3.206.035-4.86.074v-.936c1.866-.035,3.206-.074,3.206-2.591V20.966L146.5,10.6c-1.022-1.477-1.2-1.4-3.277-1.586V8.082c.669.035,3.277.074,4.9.074,1.446,0,2.853-.074,4.3-.074v.936c-.564,0-1.972,0-1.972.754A5.829,5.829,0,0,0,151.61,12l4.931,7.092,4.614-6.442c.424-.611,1.373-1.763,1.373-2.591,0-1.044-.7-1.044-2.5-1.044V8.082c1.341.035,2.714.074,4.05.074.95,0,1.9-.074,2.888-.074v.936c-1.48.035-2.15,1.009-2.926,2.088L157.31,20.39v9.284Z" transform="translate(-10.065 -0.405)" fill="#FFFFFF"/><path d="M169.543,27.232h.811c.6,2.7,2.57,5.324,5.5,5.324a4.656,4.656,0,0,0,4.825-4.787c0-6.693-10.427-4.714-10.427-13.209,0-4.644,3.239-7.053,7.539-7.053a28.481,28.481,0,0,1,4.3.542l.564,4.605h-.81A4.309,4.309,0,0,0,177.29,8.66c-2.676,0-4.227,1.98-4.227,4.605,0,6.693,10.847,4.857,10.847,13.136,0,4.679-4.121,7.3-8.277,7.3a12.747,12.747,0,0,1-5.39-1.222Z" transform="translate(-11.914 -0.377)" fill="#FFFFFF"/></g></svg>