<svg width="60" height="61" viewBox="0 0 60 61" fill="none" xmlns="http://www.w3.org/2000/svg">
<circle cx="30" cy="30.333" r="30" fill="white"/>
<g clip-path="url(#clip0_2701_10044)">
<path d="M34.5448 38.7854H10.1506C8.96742 38.7854 8 37.8036 8 36.6028V19.5157C8 18.3149 8.96742 17.333 10.1506 17.333H34.5517C35.7349 17.333 36.7023 18.3149 36.7023 19.5157V32.2657C36.7023 32.5199 36.5005 32.7177 36.2569 32.7177C36.0133 32.7177 35.8115 32.5129 35.8115 32.2657V19.5157C35.8115 18.8164 35.2477 18.2442 34.5587 18.2442H10.1506C9.46156 18.2442 8.89782 18.8164 8.89782 19.5157V36.6028C8.89782 37.3021 9.46156 37.8742 10.1506 37.8742H34.5517C35.2407 37.8742 35.8045 37.3021 35.8045 36.6028V35.522C35.8045 35.2677 36.0063 35.0699 36.2499 35.0699C36.4935 35.0699 36.6953 35.2748 36.6953 35.522V36.6028C36.6953 37.8036 35.7279 38.7854 34.5448 38.7854Z" fill="#0071BC"/>
<path d="M13.9571 42.7129C13.7066 42.7129 13.5117 42.5081 13.5117 42.2608V38.3334C13.5117 38.0791 13.7136 37.8813 13.9571 37.8813C14.2007 37.8813 14.4026 38.0862 14.4026 38.3334V42.2608C14.4026 42.5151 14.2007 42.7129 13.9571 42.7129Z" fill="#0071BC"/>
<path d="M30.7374 42.7129C30.4869 42.7129 30.292 42.5081 30.292 42.2608V38.3334C30.292 38.0791 30.4938 37.8813 30.7374 37.8813C30.981 37.8813 31.1829 38.0862 31.1829 38.3334V42.2608C31.1829 42.5151 30.981 42.7129 30.7374 42.7129Z" fill="#0071BC"/>
<path d="M33.8206 42.7552H27.6681C27.4175 42.7552 27.2227 42.5504 27.2227 42.3031C27.2227 42.0559 27.4245 41.8511 27.6681 41.8511H33.8206C34.0711 41.8511 34.266 42.0559 34.266 42.3031C34.266 42.5504 34.0642 42.7552 33.8206 42.7552Z" fill="#0071BC"/>
<path d="M17.0336 42.7552H10.8741C10.6236 42.7552 10.4287 42.5504 10.4287 42.3031C10.4287 42.0559 10.6305 41.8511 10.8741 41.8511H17.0266C17.2772 41.8511 17.4721 42.0559 17.4721 42.3031C17.4721 42.5504 17.2702 42.7552 17.0266 42.7552H17.0336Z" fill="#0071BC"/>
<path d="M48.7151 42.7552C48.4646 42.7552 48.2697 42.5504 48.2697 42.3031V39.5483C48.2697 39.294 48.4715 39.0962 48.7151 39.0962C48.9587 39.0962 49.1605 39.3011 49.1605 39.5483C49.1605 40.0851 49.5433 40.5443 50.0375 40.5937C50.3159 40.622 50.5803 40.5301 50.7891 40.3394C50.991 40.1558 51.1093 39.8874 51.1093 39.6119V32.0113C51.1093 30.6763 50.0375 29.5885 48.7221 29.5885H41.5813C41.115 29.5885 40.6417 29.7722 40.2241 30.0971L37.127 32.5482C37.0852 32.5835 37.0365 32.6047 36.9878 32.6259L33.7028 33.6854C33.487 33.7561 33.3061 33.9115 33.2086 34.1163C33.1112 34.3282 33.0973 34.5613 33.1808 34.7803C33.32 35.1617 33.7167 35.3878 34.1064 35.3101L35.9856 34.9498C37.12 34.7309 38.2267 34.3706 39.2776 33.8832L41.3934 32.8943C41.5326 32.8307 41.6926 32.8449 41.8249 32.9226C41.9502 33.0073 42.0337 33.1486 42.0337 33.304V39.5624C42.0337 39.8167 41.8318 40.0145 41.5882 40.0145C41.3447 40.0145 41.1428 39.8097 41.1428 39.5624V34.0104L39.6604 34.7026C38.5468 35.2253 37.3706 35.6068 36.1666 35.8399L34.2874 36.2001C33.4592 36.3555 32.6518 35.8964 32.3526 35.0982C32.1855 34.6461 32.2064 34.1516 32.4152 33.7208C32.624 33.2828 32.9859 32.9649 33.4453 32.8166L36.6537 31.7853L39.6882 29.3907C40.2589 28.9386 40.9271 28.6914 41.5813 28.6914H48.736C50.5455 28.6914 52.021 30.1889 52.021 32.0255V39.626C52.021 40.1558 51.7983 40.6714 51.4086 41.0317C51.0188 41.3919 50.4968 41.5685 49.9679 41.512C49.6825 41.4837 49.4111 41.3849 49.1814 41.2365V42.3243C49.1814 42.5786 48.9796 42.7764 48.736 42.7764L48.7151 42.7552Z" fill="#0071BC"/>
<path d="M41.5743 42.7552C41.3238 42.7552 41.1289 42.5503 41.1289 42.3031V39.5483C41.1289 39.294 41.3307 39.0962 41.5743 39.0962C41.8179 39.0962 42.0198 39.301 42.0198 39.5483V42.3031C42.0198 42.5574 41.8179 42.7552 41.5743 42.7552Z" fill="#0071BC"/>
<path d="M48.7151 29.5743H41.5743C41.3238 29.5743 41.1289 29.3695 41.1289 29.1222C41.1289 28.875 41.3307 28.6702 41.5743 28.6702H48.7151C48.9657 28.6702 49.1605 28.875 49.1605 29.1222C49.1605 29.3695 48.9587 29.5743 48.7151 29.5743Z" fill="#0071BC"/>
<path d="M48.715 40.0002C48.4644 40.0002 48.2695 39.7954 48.2695 39.5482V33.2897C48.2695 33.0354 48.4714 32.8376 48.715 32.8376C48.9586 32.8376 49.1604 33.0425 49.1604 33.2897V39.5482C49.1604 39.8024 48.9586 40.0002 48.715 40.0002Z" fill="#0071BC"/>
<path d="M45.1444 27.6106C43.5785 27.6106 42.2979 26.318 42.2979 24.7216C42.2979 23.1252 43.5715 21.8325 45.1444 21.8325C46.7173 21.8325 47.991 23.1252 47.991 24.7216C47.991 26.318 46.7173 27.6106 45.1444 27.6106ZM45.1444 22.7437C44.0726 22.7437 43.1957 23.6338 43.1957 24.7216C43.1957 25.8094 44.0726 26.6994 45.1444 26.6994C46.2162 26.6994 47.0932 25.8094 47.0932 24.7216C47.0932 23.6338 46.2162 22.7437 45.1444 22.7437Z" fill="#0071BC"/>
<path d="M32.86 34.2436C32.7835 34.2436 32.6999 34.2224 32.6303 34.18L28.6841 31.8066C28.4684 31.6794 28.3988 31.3969 28.524 31.185C28.6493 30.966 28.9277 30.8954 29.1365 31.0225L33.0827 33.3959C33.2985 33.5231 33.3681 33.8056 33.2428 34.0175C33.1593 34.1588 33.0131 34.2436 32.86 34.2436Z" fill="#0071BC"/>
</g>
<defs>
<clipPath id="clip0_2701_10044">
<rect width="44" height="25.4222" fill="white" transform="translate(8 17.333)"/>
</clipPath>
</defs>
</svg>
