<svg width="60" height="61" viewBox="0 0 60 61" fill="none" xmlns="http://www.w3.org/2000/svg">
<circle cx="30" cy="30.333" r="30" fill="white"/>
<g clip-path="url(#clip0_2701_9985)">
<path d="M35.5186 20.6609H24.4821C24.1609 20.6609 23.9111 20.3978 23.9111 20.0803V18.6376C23.9111 17.3674 24.9282 16.333 26.1773 16.333H33.8412C35.0903 16.333 36.1074 17.3674 36.1074 18.6376V20.0803C36.1074 20.4069 35.8487 20.6609 35.5364 20.6609H35.5186ZM25.0531 19.4905H34.9476V18.6285C34.9476 18.0025 34.4479 17.4944 33.8323 17.4944H26.1684C25.5528 17.4944 25.0531 18.0025 25.0531 18.6285V19.4905Z" fill="#0071BC"/>
<path d="M44.2441 44.3329H15.7474C14.4627 44.3329 13.4277 43.2713 13.4277 41.9739V31.3037C13.4277 31.1313 13.508 30.968 13.6329 30.8501C13.7668 30.7412 13.9363 30.6958 14.1058 30.723L20.6099 31.957C20.8775 32.0114 21.0828 32.2474 21.0828 32.5286V35.5863H23.0456V33.1184C23.0456 32.946 23.1259 32.7827 23.2508 32.6647C23.3846 32.5558 23.5541 32.5105 23.7236 32.5377L29.9958 33.7354L36.2679 32.5377C36.4374 32.5105 36.6069 32.5558 36.7407 32.6647C36.8746 32.7736 36.946 32.9369 36.946 33.1184V35.5863H38.9088V32.5286C38.9088 32.2474 39.1051 32.0024 39.3816 31.957L45.8857 30.723C46.0552 30.6958 46.2248 30.7412 46.3586 30.8501C46.4924 30.959 46.5638 31.1223 46.5638 31.3037V41.9739C46.5638 43.2804 45.5199 44.3329 44.2441 44.3329ZM14.5787 31.9933V41.9648C14.5787 42.6271 15.1051 43.1625 15.7564 43.1625H44.253C44.9043 43.1625 45.4307 42.6271 45.4307 41.9648V31.9933L40.0686 33.0095V36.167C40.0686 36.4936 39.8099 36.7477 39.4976 36.7477H36.3928C36.0716 36.7477 35.8218 36.4846 35.8218 36.167V33.8261L30.1207 34.9149C30.0493 34.924 29.9779 34.924 29.9065 34.9149L24.2054 33.8261V36.167C24.2054 36.4936 23.9467 36.7477 23.6344 36.7477H20.5296C20.2084 36.7477 19.9586 36.4846 19.9586 36.167V33.0095L14.6054 31.9933H14.5787Z" fill="#0071BC"/>
<path d="M29.9957 34.924C29.9957 34.924 29.9243 34.924 29.8886 34.9149L23.5094 33.6991C23.2418 33.6447 23.0366 33.4088 23.0366 33.1275V30.6687H21.0737V32.5378C21.0737 32.7101 20.9934 32.8735 20.8685 32.9914C20.7347 33.1003 20.5652 33.1457 20.3957 33.1184L13.8916 31.8845C12.7942 31.6758 11.9912 30.6959 11.9912 29.5617V21.8586C11.9912 20.552 13.0351 19.4995 14.3109 19.4995H45.6626C46.9473 19.4995 47.9823 20.5611 47.9823 21.8586V29.5436C47.9823 30.6777 47.1882 31.6576 46.0819 31.8663L39.5778 33.1003C39.4083 33.1275 39.2388 33.0821 39.105 32.9733C38.9711 32.8644 38.8998 32.7011 38.8998 32.5196V30.6505H36.9369V33.1094C36.9369 33.3906 36.7407 33.6356 36.4641 33.681L30.0849 34.8968C30.0849 34.8968 30.0135 34.9059 29.9778 34.9059L29.9957 34.924ZM24.1964 32.6376L30.0046 33.7445L35.8128 32.6376V30.0789C35.8128 29.7523 36.0715 29.4982 36.3838 29.4982H39.4886C39.8098 29.4982 40.0596 29.7613 40.0596 30.0789V31.821L45.8856 30.714C46.4388 30.6052 46.8403 30.1152 46.8403 29.5436V21.8586C46.8403 21.1962 46.3139 20.6609 45.6626 20.6609H14.3198C13.6685 20.6609 13.1421 21.1962 13.1421 21.8586V29.5436C13.1421 30.1152 13.5436 30.6142 14.0968 30.714L19.9228 31.821V30.0789C19.9228 29.7523 20.1815 29.4982 20.4938 29.4982H23.5986C23.9198 29.4982 24.1697 29.7613 24.1697 30.0789V32.6376H24.1964Z" fill="#0071BC"/>
<path d="M29.9958 34.9242C29.7281 34.9242 29.4873 34.7245 29.4337 34.4433C29.4337 34.407 29.4248 34.3707 29.4248 34.3344C29.4248 34.0622 29.6211 33.8172 29.8977 33.7628L36.2768 32.547C36.5891 32.4925 36.8925 32.7012 36.946 33.0097C36.946 33.046 36.9549 33.0823 36.9549 33.1186C36.9549 33.3908 36.7586 33.6358 36.4821 33.6902L30.1029 34.906C30.1029 34.906 30.0315 34.9151 29.9958 34.9151V34.9242Z" fill="#0071BC"/>
<path d="M20.5117 33.1186C20.5117 33.1186 20.4404 33.1186 20.4047 33.1095L13.9006 31.8756C13.624 31.8211 13.4277 31.5761 13.4277 31.3039C13.4277 31.2677 13.4277 31.2314 13.4367 31.1951C13.4991 30.8775 13.7935 30.6688 14.1058 30.7323L20.6099 31.9663C20.8865 32.0207 21.0828 32.2657 21.0828 32.5379C21.0828 32.5742 21.0828 32.6105 21.0738 32.6468C21.0203 32.9281 20.7794 33.1277 20.5117 33.1277V33.1186Z" fill="#0071BC"/>
<path d="M30.004 34.9242C30.004 34.9242 29.9327 34.9242 29.897 34.9151L23.5178 33.6993C23.2412 33.6449 23.0449 33.3999 23.0449 33.1277C23.0449 33.0914 23.0449 33.0551 23.0538 33.0188C23.1163 32.7012 23.4107 32.4926 23.723 32.5561L30.1022 33.7719C30.3788 33.8263 30.575 34.0713 30.575 34.3435C30.575 34.3798 30.575 34.4161 30.5661 34.4524C30.5126 34.7336 30.2717 34.9333 30.004 34.9333V34.9242Z" fill="#0071BC"/>
<path d="M39.488 33.1185C39.2203 33.1185 38.9794 32.9189 38.9259 32.6377C38.9259 32.6014 38.917 32.5651 38.917 32.5288C38.917 32.2566 39.1133 32.0116 39.3899 31.9572L45.8939 30.7232C46.2062 30.6597 46.5096 30.8775 46.5631 31.1859C46.5631 31.2222 46.572 31.2585 46.572 31.2948C46.572 31.567 46.3757 31.812 46.0991 31.8664L39.5951 33.1004C39.5951 33.1004 39.5237 33.1095 39.488 33.1095V33.1185Z" fill="#0071BC"/>
<path d="M23.6163 36.7568H20.5114C20.1902 36.7568 19.9404 36.4937 19.9404 36.1762V30.088C19.9404 29.7614 20.1992 29.5073 20.5114 29.5073H23.6163C23.9375 29.5073 24.1873 29.7704 24.1873 30.088V36.1762C24.1873 36.5028 23.9285 36.7568 23.6163 36.7568ZM21.0824 35.5864H23.0453V30.6687H21.0824V35.5864Z" fill="#0071BC"/>
</g>
<defs>
<clipPath id="clip0_2701_9985">
<rect width="36" height="28" fill="white" transform="translate(12 16.333)"/>
</clipPath>
</defs>
</svg>
