<svg width="60" height="61" viewBox="0 0 60 61" fill="none" xmlns="http://www.w3.org/2000/svg">
<circle cx="30" cy="30.333" r="30" fill="white"/>
<g clip-path="url(#clip0_2701_9944)">
<path d="M20.5078 18.7267C18.36 18.7267 16.6104 17.0693 16.6104 15.0348C16.6104 13.0004 18.36 11.343 20.5078 11.343C22.6556 11.343 24.4052 13.0004 24.4052 15.0348C24.4052 17.0693 22.6556 18.7267 20.5078 18.7267ZM20.5078 12.6133C19.1039 12.6133 17.9514 13.6951 17.9514 15.0348C17.9514 16.3746 19.0934 17.4564 20.5078 17.4564C21.9222 17.4564 23.0642 16.3746 23.0642 15.0348C23.0642 13.6951 21.9222 12.6133 20.5078 12.6133Z" fill="#0071BC"/>
<path d="M31.9908 48.956C30.786 48.956 29.7173 48.1224 29.5287 46.9613L28.6068 41.2747C28.502 40.6395 27.9677 40.1334 27.2971 40.0242L24.3636 40.1334H21.9644C18.9784 40.1334 16.5163 37.9203 16.3696 35.0918L15.8039 24.1255C15.741 22.9743 16.1706 21.8727 17.0192 21.0391C17.8574 20.2055 18.9994 19.739 20.2147 19.739H21.5034C23.473 19.739 25.4218 20.3642 26.9828 21.5155L28.5229 22.6468C29.9164 23.669 31.5822 24.2744 33.3424 24.4133L36.0454 24.6218C37.2293 24.7111 38.1303 25.6936 38.0465 26.815C37.9732 27.9067 37.0826 28.7502 35.9825 28.8197L32.5042 29.038C30.7441 29.1472 28.9735 28.8296 27.3809 28.125L24.9503 27.0433L24.4474 34.1887L30.7545 35.9751C32.1689 36.4118 33.1957 37.5729 33.3947 38.9524L34.4529 46.2765C34.6415 47.5567 33.6881 48.7377 32.347 48.9163C32.2318 48.9362 32.1165 48.9362 32.0013 48.9362L31.9908 48.956ZM27.3286 38.7539C27.3286 38.7539 27.3809 38.7539 27.4124 38.7539C28.701 38.9028 29.7383 39.8654 29.9373 41.0762L30.8593 46.7628C30.9536 47.3483 31.5194 47.7453 32.148 47.6659C32.7661 47.5865 33.1957 47.0407 33.1119 46.4651L32.0537 39.1409C31.928 38.2478 31.2574 37.4836 30.3459 37.2057L23.5359 35.2705C23.2321 35.1812 23.033 34.9132 23.054 34.6155L23.6511 26.031C23.6616 25.8226 23.7873 25.634 23.9864 25.5249C24.175 25.4157 24.416 25.4058 24.615 25.4951L27.9467 26.9738C29.3401 27.5891 30.8803 27.867 32.4099 27.7677L35.8883 27.5494C36.3283 27.5196 36.674 27.1921 36.695 26.7753C36.7264 26.3089 36.3807 25.9417 35.9302 25.902L33.2271 25.6936C31.205 25.5447 29.2982 24.8401 27.6953 23.669L26.1551 22.5377C24.8246 21.5651 23.1797 21.0292 21.5034 21.0292H20.2147C19.3661 21.0292 18.5803 21.3467 17.9936 21.9323C17.4069 22.5178 17.1135 23.2721 17.1554 24.0759L17.7212 35.0422C17.8364 37.1859 19.6908 38.873 21.9644 38.873H24.3321L27.2971 38.7539C27.2971 38.7539 27.3181 38.7539 27.3286 38.7539Z" fill="#0071BC"/>
<path d="M27.4331 42.6343H27.4226L15.196 42.4358C14.8607 42.4358 14.5778 42.1877 14.5359 41.8701L12.0005 21.0391C11.9586 20.6918 12.2205 20.3742 12.5977 20.3345C12.9644 20.2948 13.2996 20.5429 13.3415 20.9002L15.8036 41.1655L27.4436 41.3541C27.8207 41.3541 28.1141 41.6518 28.1036 41.9992C28.1036 42.3465 27.7998 42.6244 27.4331 42.6244V42.6343Z" fill="#0071BC"/>
<path d="M21.6178 49.3331C21.2406 49.3331 20.9473 49.0453 20.9473 48.6979V41.8998C20.9473 41.5425 21.2511 41.2646 21.6178 41.2646C21.9845 41.2646 22.2883 41.5525 22.2883 41.8998V48.6979C22.2883 49.0552 21.9845 49.3331 21.6178 49.3331Z" fill="#0071BC"/>
<path d="M25.0019 49.3331H18.2233C17.8461 49.3331 17.5527 49.0452 17.5527 48.6979C17.5527 48.3506 17.8566 48.0627 18.2233 48.0627H25.0019C25.379 48.0627 25.6724 48.3506 25.6724 48.6979C25.6724 49.0452 25.3686 49.3331 25.0019 49.3331Z" fill="#0071BC"/>
<path d="M32.0533 37.9598C31.6762 37.9598 31.3828 37.672 31.3828 37.3247V33.1962C31.3828 32.8389 31.6866 32.561 32.0533 32.561C32.42 32.561 32.7239 32.8488 32.7239 33.1962V37.3247C32.7239 37.682 32.42 37.9598 32.0533 37.9598Z" fill="#0071BC"/>
<path d="M47.3392 48.9559C46.9621 48.9559 46.6687 48.6681 46.6687 48.3208V33.8313H32.0533C31.6762 33.8313 31.3828 33.5435 31.3828 33.1962C31.3828 32.8488 31.6866 32.561 32.0533 32.561H47.3392C47.7164 32.561 48.0098 32.8488 48.0098 33.1962V48.3208C48.0098 48.678 47.7059 48.9559 47.3392 48.9559Z" fill="#0071BC"/>
<path d="M48.6592 33.8313H30.8903C30.5131 33.8313 30.2197 33.5435 30.2197 33.1962C30.2197 32.8488 30.5236 32.561 30.8903 32.561H48.6592C49.0364 32.561 49.3297 32.8488 49.3297 33.1962C49.3297 33.5435 49.0259 33.8313 48.6592 33.8313Z" fill="#0071BC"/>
<path d="M45.8511 33.8314H36.5161C36.2856 33.8314 36.0656 33.7222 35.9503 33.5336C35.8246 33.3451 35.8141 33.1168 35.9084 32.9183L39.3763 25.9317C39.4916 25.7034 39.722 25.5645 39.984 25.5645H49.319C49.5495 25.5645 49.7695 25.6736 49.8847 25.8622C50.0104 26.0507 50.0209 26.279 49.9266 26.4775L46.4587 33.4642C46.3435 33.6924 46.113 33.8314 45.8511 33.8314ZM37.5847 32.5511H45.432L48.2713 26.8447H40.424L37.5847 32.5511Z" fill="#0071BC"/>
</g>
<defs>
<clipPath id="clip0_2701_9944">
<rect width="38" height="38" fill="white" transform="translate(12 11.333)"/>
</clipPath>
</defs>
</svg>
